<svg id="Layer_1" data-name="Layer 1" xmlns="http://www.w3.org/2000/svg" viewBox="0 0 261 285"><path d="M172.17,121.28c0,11.7-.1,23.41.1,35.1a10.06,10.06,0,0,0,2.1,5.79c22.63,27.76,8.78,68.46-26,76.18-18.84,4.19-38.89-4.25-49.35-20.77s-9.62-38.2,2.51-53.32a15.81,15.81,0,0,0,3.64-10.87c-.16-22.31-.13-44.61-.06-66.92.06-17.43,11.17-30.66,28.3-33.91s35.59,9.7,38.1,27.08a67.44,67.44,0,0,1,.64,9.1C172.22,99.58,172.17,110.43,172.17,121.28Zm-13.52,1.4h-.19c0-13.15.37-26.32-.12-39.46C157.93,72.31,146.75,64,136,65.72s-17.34,9.46-17.37,20.9q-.1,36.55,0,73.11a12.3,12.3,0,0,1-3.73,9.43c-7.62,7.71-10.88,17.08-9.39,28,1.91,14,12.77,25.68,26.38,28.25a33.8,33.8,0,0,0,36.3-17.31,32.78,32.78,0,0,0-5.76-38.72,12.31,12.31,0,0,1-3.88-9.73C158.73,147.3,158.65,135,158.65,122.68Z" fill="#fff"/><path d="M132,151.82c0-6.21,0-12.42,0-18.63,0-4.69,2.52-7.42,6.64-7.41s6.57,2.72,6.58,7.46c0,12.3.06,24.6,0,36.9,0,2.29.48,3.63,2.72,4.8a19.76,19.76,0,0,1,10.21,22.48,20.12,20.12,0,0,1-39,0,19.75,19.75,0,0,1,10.27-22.43,4.23,4.23,0,0,0,2.66-4.49C131.91,164.25,132,158,132,151.82Z" fill="#de1f26"/></svg>