<svg id="Layer_1" data-name="Layer 1" xmlns="http://www.w3.org/2000/svg" viewBox="0 0 134.68 156.54"><defs><style>.cls-1{fill:#fff;}.cls-2{fill:#00aeef;}</style></defs><path class="cls-1" d="M130.5,109.29a29.76,29.76,0,0,0-16.2,8.65,4.14,4.14,0,0,1-2.65,1.12c-4.47.11-9,.17-13.43,0a3.92,3.92,0,0,1-2.69-2c-2.47-5.2-6.35-8-12.21-8-2.53,0-5.06,0-8,0V99.43h-9V177.3h9v-9.43c2.89,0,5.41,0,7.93,0,6.63-.1,10.6-3,12.58-9.39.47-1.48,1.06-2.24,2.71-2.09a26,26,0,0,0,4.58,0,21.22,21.22,0,0,1,16.11,4.76c10,7.9,25.09,6.85,34.33-1.67,3-2.78,5.9-3.55,10-2.79V180.4h37.22c.06-1,.17-1.93.18-2.9,0-9.67,0-19.35,0-29-.08-17.09-12.11-29.16-29.19-29.35-1.32,0-2.65-.08-4,0-6.05.38-11.63.21-16.37-4.88-2.23-2.39-6.2-3.33-9.54-4.42-1.76-.58-2.28-1.24-2.19-2.91.1-1.82,0-3.65,0-5.25a54.63,54.63,0,0,1,5.72-3.34,6.25,6.25,0,0,1,3.39-.13c6.59,1.13,13.14,2.64,19.77,3.47,7,.87,12.58-2.09,16-8.31a15.23,15.23,0,0,0-.9-17c-4.07-5.89-10-7.9-16.82-6.85-6.22,1-12.35,2.41-18.55,3.49a5.29,5.29,0,0,1-3.5-.64c-6.23-4.1-12.94-4.1-19.18,0a5.77,5.77,0,0,1-3.8.63c-6.2-1.06-12.33-2.54-18.55-3.47C93.93,68.08,85.52,73.85,84,82.36c-1.55,8.83,3.58,17.57,12.26,18.88,5.27.8,10.87-.49,16.31-1a15.44,15.44,0,0,0,5.34-1.18c4.31-2.1,7.94-.77,11.41,1.78a2.85,2.85,0,0,1,1.11,1.81C130.58,104.8,130.5,106.93,130.5,109.29Zm-34.12,19c6.47,0,12.77.1,19.06-.09a5.49,5.49,0,0,0,3.72-1.86c8.56-11,23.28-11,32-.07a6,6,0,0,0,4,1.93c5.6.21,11.21,0,16.81.1,11.68.17,19.72,8.21,19.84,19.83.06,5.3,0,10.59,0,15.89v7.22H172.8v-24c-6.06,0-11.84.07-17.62,0a5,5,0,0,0-4.55,2.26c-7.68,9.87-22.35,10.47-30,1-2.19-2.69-4.35-3.39-7.49-3.28-5.56.18-11.12.05-16.75.05Zm-21-10.11c2.93,0,5.56,0,8.19,0A3.13,3.13,0,0,1,87,121.63q.06,16.76,0,33.53c0,2-.91,3.38-3,3.47-2.8.11-5.62,0-8.59,0Zm75.89-36.83c6.43-1,12.7-2.2,19-2.8,4-.38,7.22,3.27,7.15,7.14s-3.12,7.21-7.06,6.84c-6.42-.59-12.78-1.74-19.12-2.66ZM119,89.88c-6.24.9-12.6,2.06-19,2.66-4,.37-6.93-2.91-7-6.84s2.86-7.47,6.74-7.13c6.5.57,13,1.83,19.27,2.78Zm16.2,2.74A7,7,0,0,1,128,85.51a7.25,7.25,0,0,1,7.29-7.05,7,7,0,0,1,6.9,7A6.85,6.85,0,0,1,135.16,92.62Z" transform="translate(-66.26 -69.25)"/><path class="cls-2" d="M182.61,185.58c-5.78,6.15-11.15,12.14-13.89,19.9-3.5,9.92,3.2,20,13.33,20.31a14.89,14.89,0,0,0,14.6-20C194,197.84,188.5,191.79,182.61,185.58Zm-.42,13.9,1,0c1.62,3.12,3.36,6.18,4.82,9.37,1.23,2.7.19,5-2.08,6.68a5.22,5.22,0,0,1-6.54,0c-2.34-1.67-3.23-4.08-2.07-6.71C178.71,205.63,180.54,202.6,182.19,199.48Z" transform="translate(-66.26 -69.25)"/></svg>