<svg id="Layer_1" data-name="Layer 1" xmlns="http://www.w3.org/2000/svg" viewBox="0 0 261 285"><polygon points="84.72 146.87 157.66 146.87 153.36 204.44 146.18 209.19 95.35 209.19 87.02 197.37 84.72 146.87" fill="#00aeef"/><path d="M161.87,121.72c-.19,3.4-.41,6.52-.54,9.64q-1,23.35-2.05,46.71c-.31,7.07-.55,14.15-1,21.22a12.53,12.53,0,0,1-12,12.06c-5.49.31-11,.15-16.52.16q-15.58,0-31.17,0c-9.1,0-14-4.92-14.49-14-1-19.42-2.09-38.82-3.15-58.23-.33-6.13-.6-12.26-1-18.38a6.55,6.55,0,0,0-1-3c-2.27-3.59-4.66-7.1-7-10.63-1-1.45-2-2.85-1.06-4.75s2.79-2,4.65-2q36.48,0,73,0c7.55,0,15.12-.19,22.66.23,11.12.61,20.2,10.49,20.27,21.65.07,10.31,0,20.63,0,30.94,0,6.25-4.55,10.9-10.58,10.93a10.55,10.55,0,0,1-10.65-10.86c0-9.6-.07-19.21,0-28.81,0-2.21-.69-3-2.83-2.84C165.61,121.82,163.82,121.72,161.87,121.72Zm-6.56-14H80.83c1.62,2.45,3.21,4.51,4.41,6.78A14.57,14.57,0,0,1,87,120c.51,6.35.72,12.73,1.07,19.09q1.58,29,3.15,58c.29,5.55,2.12,7.38,7.72,7.38q19.47,0,38.95,0c2.52,0,5.05.08,7.56-.06a5.79,5.79,0,0,0,5.8-5.92c.51-11,1-22,1.46-33,.55-12.11,1.15-24.21,1.71-36.32C154.74,122.05,155,115,155.31,107.77Zm6.78,6.86c2.15,0,3.95,0,5.75,0,6.26.07,9.41,3.24,9.41,9.46q0,14.4,0,28.79c0,2,.64,3.57,2.74,4.1,2.51.62,4.36-1.1,4.37-4.08,0-9.68-.08-19.35,0-29,.12-11.05-8.68-18.54-21.92-15.88Z" fill="#fff"/><path d="M106,126.44v7c2.86.41,6.93-.75,6.84,3.79-.08,4.31-4,3.17-6.83,3.56v7c2.6,0,5.16-.06,7.72,0,2.35.06,3.78,1.3,3.95,3.23a3.5,3.5,0,0,1-3.62,3.78c-2.59.11-5.19,0-8,0v6.94c2.67.52,6.49-.78,6.84,3.74.19,2.39-1.25,3.09-6.88,3.7v6.91c2.52,0,4.94,0,7.37,0,2.75,0,4.35,1.45,4.28,3.63s-1.61,3.38-4.26,3.43c-2.42.05-4.85,0-7.41,0v7.11c1.08,0,2.15-.06,3.21,0,2.28.15,3.7,1.5,3.73,3.46a3.47,3.47,0,0,1-3.62,3.55c-2.2.12-4.41.11-6.61,0-2.79-.11-3.92-1.43-3.92-4.47V150.56q0-13.35,0-26.7c0-3.2,1.19-4.45,4.37-4.49,3.47-.05,6.93-.06,10.39,0,2.62,0,4.14,1.43,4.12,3.56s-1.56,3.43-4.19,3.49C111.1,126.48,108.66,126.44,106,126.44Z" fill="#fff"/></svg>